<svg xmlns="http://www.w3.org/2000/svg" version="1.1" xmlns:xlink="http://www.w3.org/1999/xlink" xmlns:svgjs="http://svgjs.dev/svgjs" width="1500" height="1500" viewBox="0 0 1500 1500"><rect width="1500" height="1500" fill="#ffffff"></rect><g transform="matrix(0.6666666666666666,0,0,0.6666666666666666,249.39393939393938,649.8317431951698)"><svg viewBox="0 0 396 79" data-background-color="#ffffff" preserveAspectRatio="xMidYMid meet" height="299" width="1500" xmlns="http://www.w3.org/2000/svg" xmlns:xlink="http://www.w3.org/1999/xlink"><g id="tight-bounds" transform="matrix(1,0,0,1,0.2400000000000091,0.19879074037589817)"><svg viewBox="0 0 395.52 78.6024185192482" height="78.6024185192482" width="395.52"><g><svg viewBox="0 0 438.0323264541426 87.05097150310597" height="78.6024185192482" width="395.52"><g><svg viewBox="0 0 438.0323264541426 87.05097150310597" height="87.05097150310597" width="438.0323264541426"><g id="textblocktransform"><svg viewBox="0 0 438.0323264541426 87.05097150310597" height="87.05097150310597" width="438.0323264541426" id="textblock"><g><svg viewBox="0 0 438.0323264541426 61.4031" height="61.4031" width="438.0323264541426"><g><svg><g></g><g></g></svg></g><g><svg><g><svg></svg></g><g></g></svg></g><g id="text-0"><svg viewBox="0 0 438.0323264541426 61.4031" height="61.4031" width="438.0323264541426"><g transform="matrix(1,0,0,1,0,12.97655)"><svg width="165" viewBox="2 -34.6 164.98 35.45" height="35.45" data-palette-color="#35185a"><path d="M16.95 0.6Q12.45 0.6 9.05-1.3 5.65-3.2 3.83-6.68 2-10.15 2-14.85L2-14.85Q2-19.85 4.25-23.88 6.5-27.9 10.48-30.18 14.45-32.45 19.45-32.45L19.45-32.45Q21.3-32.45 23.23-32.18 25.15-31.9 26.48-31.63 27.8-31.35 28.15-31.25L28.15-31.25 28.35-30.95Q28.25-30.65 28.03-29.5 27.8-28.35 27.53-26.5 27.25-24.65 27.1-22.6L27.1-22.6 24.7-22.4Q24.75-22.65 24.8-23.33 24.85-24 24.85-24.85L24.85-24.85Q24.85-29.5 17.5-29.5L17.5-29.5Q14.2-29.5 11.7-27.9 9.2-26.3 7.85-23.38 6.5-20.45 6.5-16.5L6.5-16.5Q6.5-12.15 7.93-8.85 9.35-5.55 11.95-3.73 14.55-1.9 17.95-1.9L17.95-1.9Q21.35-1.9 23.43-3.83 25.5-5.75 26.45-9.8L26.45-9.8 28.85-10Q28.7-9.25 28.2-6.68 27.7-4.1 27.5-1.85L27.5-1.85 27.2-1.4Q27.2-1.35 25.68-0.83 24.15-0.3 21.88 0.15 19.6 0.6 16.95 0.6L16.95 0.6ZM33.25-1.8Q34.75-1.95 35.25-2.78 35.75-3.6 35.75-5.95L35.75-5.95 35.75-16.95Q35.75-18.6 35.3-19.3 34.85-20 33.85-20L33.85-20Q33.45-20 33.17-19.95 32.9-19.9 32.8-19.85L32.8-19.85 32.55-20.2 32.7-21.75Q34.6-22.1 36.72-22.6 38.85-23.1 39.45-23.25L39.45-23.25 39.8-22.95Q39.7-22.5 39.5-20.88 39.3-19.25 39.35-17.8L39.35-17.8 39.55-17.65Q41.05-20 43.07-21.5 45.1-23 46.6-23L46.6-23Q47.3-23 47.67-22.93 48.05-22.85 48.15-22.8L48.15-22.8 48.3-22.6Q48.2-21.9 47.87-19.63 47.55-17.35 47.5-15.45L47.5-15.45 45.55-15.3Q45.55-17.35 45.27-18.03 45-18.7 44.2-18.7L44.2-18.7Q43.1-18.7 41.85-17.78 40.6-16.85 39.55-15.3L39.55-15.3Q39.5-13.85 39.35-10.5 39.2-7.15 39.15-5.1L39.15-5.1Q39.15-3.4 39.65-2.8 40.15-2.2 41.55-2.2L41.55-2.2Q42.2-2.2 42.85-2.25 43.5-2.3 43.75-2.3L43.75-2.3 43.8-2.1 43.35 0.1Q42.85 0.1 41.35 0.05 39.85 0 38.25 0L38.25 0Q36.4 0 34.9 0.08 33.4 0.15 33 0.2L33 0.2 33.25-1.8ZM61.25 0.6Q58.15 0.6 55.75-0.78 53.35-2.15 52.05-4.67 50.75-7.2 50.75-10.45L50.75-10.45Q50.75-13.8 52.27-16.75 53.8-19.7 56.35-21.45 58.9-23.2 61.8-23.2L61.8-23.2Q65.45-23.2 67.35-21.35 69.25-19.5 69.25-15.95L69.25-15.95Q69.25-14.5 68.95-13.5L68.95-13.5 68.3-12.9 54.5-12.9Q54.45-8.05 56.42-5.43 58.4-2.8 61.95-2.8L61.95-2.8Q64.75-2.8 68.05-4.35L68.05-4.35 68.35-4.25 68.9-2.8Q67.1-1.5 64.92-0.45 62.75 0.6 61.25 0.6L61.25 0.6ZM54.7-14.75L63.75-15.2Q64.5-15.3 64.75-15.55 65-15.8 65-16.55L65-16.55Q65-18.55 63.92-19.6 62.85-20.65 60.85-20.65L60.85-20.65Q58.5-20.65 56.82-19.05 55.15-17.45 54.7-14.75L54.7-14.75ZM89.94 0.6Q85.89 0.6 85.49-3.45L85.49-3.45 85.29-3.5Q83.49-1.7 82.02-0.65 80.54 0.4 79.79 0.4L79.79 0.4Q76.99 0.4 75.19-1.35 73.39-3.1 73.39-5.8L73.39-5.8Q73.39-7.25 74.12-8.35 74.84-9.45 76.04-9.8L76.04-9.8 85.54-12.4 85.59-14.6Q85.59-17.1 84.44-18.5 83.29-19.9 81.19-19.9L81.19-19.9Q79.79-19.9 78.24-19.25 76.69-18.6 75.19-17.4L75.19-17.4 74.94-17.55 74.34-19.7Q76.69-21.05 79.07-22.13 81.44-23.2 82.49-23.2L82.49-23.2Q85.74-23.2 87.59-21.5 89.44-19.8 89.44-16.75L89.44-16.75Q89.44-15.65 89.09-12.25L89.09-12.25Q88.54-6.75 88.54-5.25L88.54-5.25Q88.54-4.15 89.09-3.55 89.64-2.95 90.59-2.95L90.59-2.95Q91.39-2.95 92.24-3.33 93.09-3.7 93.59-4.2L93.59-4.2 94.29-3.4Q93.54-2.15 92.37-0.98 91.19 0.2 89.94 0.6L89.94 0.6ZM80.64-3Q81.59-3 82.87-3.68 84.14-4.35 85.19-5.4L85.19-5.4 85.44-10.5 78.64-8.45Q77.19-8 77.19-6.35L77.19-6.35Q77.19-4.9 78.17-3.95 79.14-3 80.64-3L80.64-3ZM104.94 0.6Q101.54 0.6 100.14-0.78 98.74-2.15 98.74-5.45L98.74-5.45 98.74-17.75Q98.74-19.1 98.14-19.65 97.54-20.2 95.89-20.25L95.89-20.25 95.69-20.55 95.94-22.05Q97.39-22.75 98.77-23.78 100.14-24.8 101.02-25.58 101.89-26.35 102.14-26.6L102.14-26.6 103.14-26.2Q103.09-25.95 102.99-25 102.89-24.05 102.74-22.45L102.74-22.45 110.09-22.6 110.24-22.45 109.79-19.8 102.54-19.95Q102.19-14.45 102.19-7.45L102.19-7.45Q102.19-4.9 103.07-3.85 103.94-2.8 106.09-2.8L106.09-2.8Q106.84-2.8 107.59-3 108.34-3.2 108.84-3.43 109.34-3.65 109.49-3.7L109.49-3.7 109.99-2.4Q109.69-2.15 108.72-1.45 107.74-0.75 106.62-0.08 105.49 0.6 104.94 0.6L104.94 0.6ZM113.34 0.6L113.54-1.45Q115.04-1.85 115.69-2.63 116.34-3.4 116.34-4.7L116.34-4.7 116.34-17.4Q116.34-20.1 114.49-20.1L114.49-20.1Q114.14-20.1 113.74-20.03 113.34-19.95 113.24-19.9L113.24-19.9 113.44-21.75Q115.54-22.05 117.76-22.55 119.99-23.05 120.64-23.2L120.64-23.2 120.89-22.6Q120.44-21.55 120.09-16.18 119.74-10.8 119.74-4.9L119.74-4.9Q119.74-3.45 120.14-2.78 120.54-2.1 121.49-2.1L121.49-2.1Q122.04-2.1 122.54-2.15 123.04-2.2 123.24-2.2L123.24-2.2 123.34-2 122.94 0.15Q122.49 0.1 121.24 0.05 119.99 0 118.49 0L118.49 0Q117.19 0 115.51 0.25 113.84 0.5 113.34 0.6L113.34 0.6ZM117.74-29.1Q116.59-29.1 115.94-29.85 115.29-30.6 115.29-31.65L115.29-31.65Q115.29-32.85 116.14-33.73 116.99-34.6 118.24-34.6L118.24-34.6Q119.39-34.6 120.04-33.85 120.69-33.1 120.69-32.05L120.69-32.05Q120.69-30.85 119.84-29.98 118.99-29.1 117.74-29.1L117.74-29.1ZM134.34 0.85Q133.59-1.55 131.36-8.58 129.14-15.6 128.24-18.3L128.24-18.3Q127.39-20.7 124.84-20.8L124.84-20.8 124.74-21 125.04-22.65 129.19-22.6Q131.09-22.6 132.89-22.75 134.69-22.9 135.19-22.95L135.19-22.95 135.29-22.7 134.99-21.15Q133.29-21.1 132.66-20.83 132.04-20.55 132.04-19.85L132.04-19.85Q132.04-18.95 133.84-12.73 135.64-6.5 136.29-4.3L136.29-4.3 136.49-4.3 139.24-11Q140.59-14.3 141.49-16.65 142.39-19 142.39-19.6L142.39-19.6Q142.39-20.25 141.91-20.53 141.44-20.8 140.24-20.8L140.24-20.8 138.34-20.8 138.14-21.1 138.39-22.65 143.74-22.6 147.84-22.65 147.49-20.8Q146.44-20.65 145.84-19.95 145.24-19.25 144.29-17.05L144.29-17.05 137.14 0 134.34 0.85ZM158.98 0.6Q155.88 0.6 153.48-0.78 151.08-2.15 149.78-4.67 148.48-7.2 148.48-10.45L148.48-10.45Q148.48-13.8 150.01-16.75 151.53-19.7 154.08-21.45 156.63-23.2 159.53-23.2L159.53-23.2Q163.18-23.2 165.08-21.35 166.98-19.5 166.98-15.95L166.98-15.95Q166.98-14.5 166.68-13.5L166.68-13.5 166.03-12.9 152.23-12.9Q152.18-8.05 154.16-5.43 156.13-2.8 159.68-2.8L159.68-2.8Q162.48-2.8 165.78-4.35L165.78-4.35 166.08-4.25 166.63-2.8Q164.83-1.5 162.66-0.45 160.48 0.6 158.98 0.6L158.98 0.6ZM152.43-14.75L161.48-15.2Q162.23-15.3 162.48-15.55 162.73-15.8 162.73-16.55L162.73-16.55Q162.73-18.55 161.66-19.6 160.58-20.65 158.58-20.65L158.58-20.65Q156.23-20.65 154.56-19.05 152.88-17.45 152.43-14.75L152.43-14.75Z" opacity="1" transform="matrix(1,0,0,1,0,0)" fill="#35185a" class="undefined-tk-0"></path></svg></g><g><svg xmlns="http://www.w3.org/2000/svg" xmlns:xlink="http://www.w3.org/1999/xlink" version="1.1" x="179.4969" y="0" viewBox="27.340515492409494 33.27923275873007 38.09194103819323 56.786767241269935" enable-background="new 0 0 100 100" xml:space="preserve" height="61.4031" width="41.18852645414256" class="icon-dxe-0" data-fill-palette-color="accent" id="dxe-0"><g fill="#bb84e8" data-fill-palette-color="accent"><path d="M54.911 64.803A0.494 0.494 0 0 1 54.434 64.172C54.441 64.147 55.153 61.623 55.364 60.386 55.454 59.857 55.2 58.358 54.955 56.908 54.651 55.109 54.337 53.249 54.417 52.058 54.492 50.914 53.722 49.28 53.041 47.838 52.515 46.723 52.018 45.669 51.887 44.829 51.621 43.134 49.383 37.899 46.115 38.173 42.196 38.485 39.661 38.357 38.311 36.769 38.128 36.554 37.955 36.332 37.783 36.114 36.817 34.882 36.055 33.911 33.947 34.396 31.288 35.01 31.207 35.269 30.905 36.234 30.39 37.88 30.327 39.174 30.509 39.379 31.402 39.43 31.458 40.254 31.485 40.65 31.493 40.774 31.509 41.005 31.55 41.055 32.148 41.295 32.292 41.757 32.397 42.095 32.483 42.372 32.538 42.522 32.735 42.653A0.497 0.497 0 0 1 32.186 43.48C31.686 43.148 31.55 42.71 31.451 42.391 31.36 42.098 31.33 42.036 31.19 41.98 30.564 41.73 30.522 41.097 30.496 40.719 30.488 40.598 30.475 40.396 30.441 40.344A0.93 0.93 0 0 1 29.685 39.932C29.067 39.019 29.739 36.646 29.959 35.94 30.399 34.531 30.827 34.101 33.725 33.432 36.446 32.803 37.572 34.239 38.564 35.505 38.728 35.713 38.893 35.924 39.067 36.13 40.138 37.388 42.526 37.468 46.037 37.188 50.219 36.839 52.605 42.998 52.867 44.679 52.976 45.379 53.444 46.369 53.939 47.419 54.707 49.045 55.501 50.728 55.407 52.128 55.336 53.202 55.654 55.085 55.934 56.746 56.216 58.416 56.46 59.859 56.342 60.555 56.122 61.845 55.419 64.339 55.389 64.445A0.5 0.5 0 0 1 54.911 64.803" fill="#bb84e8" data-fill-palette-color="accent"></path></g><g fill="#bb84e8" data-fill-palette-color="accent"><path d="M35.428 54.999A0.495 0.495 0 0 1 34.944 54.605C34.937 54.572 34.227 51.279 32.875 49.657 31.269 47.729 32.236 44.724 32.278 44.597A0.5 0.5 0 0 1 32.484 44.333C33.217 43.869 34.199 43.335 34.713 43.419 35.005 43.467 35.235 43.576 35.439 43.672 35.599 43.747 35.737 43.812 35.888 43.842 36.129 43.89 38.242 44.349 38.242 45.791 38.242 46.669 37.513 47.488 37.111 47.874 37.46 49.066 38.379 51.541 39.574 52.387A0.495 0.495 0 1 1 39.002 53.195C37.137 51.876 36.115 47.998 36.072 47.834A0.5 0.5 0 0 1 36.238 47.326C36.501 47.11 37.252 46.363 37.252 45.79 37.252 45.318 36.238 44.921 35.696 44.814 35.425 44.76 35.209 44.658 35.017 44.568 34.851 44.49 34.708 44.422 34.553 44.397 34.398 44.407 33.769 44.711 33.174 45.072 33.015 45.67 32.571 47.74 33.639 49.021 35.148 50.833 35.885 54.254 35.916 54.399A0.495 0.495 0 0 1 35.428 54.999" fill="#bb84e8" data-fill-palette-color="accent"></path></g><g fill="#bb84e8" data-fill-palette-color="accent"><path d="M33.023 65.279C32.671 65.279 32.269 65.124 31.767 64.676 31.476 64.417 31.199 64.26 30.932 64.109 30.282 63.74 29.609 63.359 29.871 61.856 30.163 60.181 31.2 59.155 32.298 58.068L32.616 57.753C33.829 56.54 34.228 56.368 36.444 55.413L36.971 55.185C40.493 53.662 43.269 51.737 43.219 51.159 42.838 49.927 42.816 47.865 43.392 46.767 43.793 46.004 43.716 45.32 43.134 44.48 42.332 43.321 43.058 41.674 43.09 41.604A0.496 0.496 0 0 1 43.994 42.009C43.846 42.343 43.549 43.337 43.949 43.915 44.737 45.054 44.842 46.137 44.27 47.227 43.828 48.07 43.851 49.846 44.167 50.87 44.759 52.786 38.604 55.558 37.364 56.095L36.836 56.323C34.673 57.256 34.395 57.376 33.317 58.454L32.995 58.773C31.928 59.829 31.085 60.663 30.848 62.026 30.706 62.841 30.844 62.919 31.421 63.247 31.704 63.407 32.057 63.607 32.427 63.936 32.948 64.399 33.059 64.335 33.425 64.12 33.595 64.021 33.808 63.897 34.071 63.827 34.407 63.738 34.61 63.467 34.606 63.376 34.349 63.228 34.216 63.037 34.191 62.811 34.151 62.444 34.41 62.19 34.659 61.945 34.893 61.716 35.185 61.429 35.365 61.001 35.947 59.616 36.734 58.513 41.022 57.982 41.4 57.823 43.407 56.972 45.216 56.133 46.956 55.324 47.086 54.289 47.368 52.02L47.385 51.886C47.584 50.294 48.24 48.793 48.819 47.469 49.146 46.72 49.455 46.013 49.658 45.355 49.873 44.657 49.952 44.305 49.981 44.137A0.5 0.5 0 0 1 50.07 43.558 0.56 0.56 0 0 1 50.722 43.471C51.105 43.701 51.085 44.088 50.605 45.646 50.386 46.358 50.066 47.09 49.727 47.866 49.148 49.19 48.55 50.559 48.368 52.009L48.351 52.143C48.062 54.461 47.871 55.993 45.632 57.032 43.619 57.967 41.364 58.913 41.342 58.923A0.5 0.5 0 0 1 41.21 58.958C37.088 59.458 36.677 60.437 36.279 61.385 36.022 61.998 35.619 62.393 35.353 62.654L35.31 62.696A0.96 0.96 0 0 1 35.585 63.533C35.502 64.088 34.972 64.616 34.325 64.788 34.19 64.823 34.06 64.899 33.923 64.978 33.642 65.141 33.355 65.279 33.023 65.279" fill="#bb84e8" data-fill-palette-color="accent"></path></g><g fill="#bb84e8" data-fill-palette-color="accent"><path d="M49.33 57.32C48.286 57.32 47.899 56.964 47.782 56.811A0.494 0.494 0 0 1 48.54 56.174C48.596 56.212 49.178 56.574 51.159 56.032A0.49 0.49 0 0 1 51.767 56.379 0.493 0.493 0 0 1 51.42 56.987C50.53 57.232 49.849 57.32 49.33 57.32" fill="#bb84e8" data-fill-palette-color="accent"></path></g><g fill="#bb84e8" data-fill-palette-color="accent"><path d="M43.147 82.183C42.93 82.183 42.748 82.142 42.615 82.048 42.551 82.003 42.319 81.97 42.165 81.947 41.748 81.887 41.229 81.812 40.95 81.368 40.759 81.063 40.741 80.678 40.895 80.188 41.173 79.306 41.954 78.739 42.708 78.189 43.321 77.744 43.899 77.323 44.188 76.775 44.796 75.62 44.649 72.405 41.56 69.861 38.299 67.175 35.464 63.674 35.436 63.64A0.496 0.496 0 0 1 36.208 63.017C36.236 63.051 39.01 66.476 42.19 69.095 45.598 71.902 45.92 75.612 45.065 77.236 44.669 77.988 43.969 78.498 43.292 78.991 42.638 79.467 42.021 79.917 41.84 80.487 41.756 80.755 41.79 80.841 41.79 80.841 41.845 80.9 42.145 80.943 42.306 80.966 42.611 81.01 42.926 81.055 43.182 81.235 43.504 81.297 45.442 80.538 48.057 78.903 49.736 77.853 50.664 76.246 50.566 75.599 50.547 75.473 50.496 75.418 50.366 75.384 48.785 74.969 47.752 72.367 46.034 66.695 44.643 62.102 42.333 61.686 42.31 61.682 42.042 61.64 41.854 61.39 41.893 61.121S42.176 60.663 42.444 60.7C42.564 60.716 45.388 61.139 46.983 66.407 48.159 70.29 49.408 74.107 50.618 74.425 51.129 74.56 51.468 74.934 51.546 75.45 51.733 76.679 50.403 78.604 48.582 79.742 47.314 80.537 44.516 82.183 43.147 82.183" fill="#bb84e8" data-fill-palette-color="accent"></path></g><g fill="#bb84e8" data-fill-palette-color="accent"><path d="M43.445 76.778A0.5 0.5 0 0 1 43.185 76.704C43.026 76.605 39.275 74.252 38.217 71.003 37.268 68.088 35.178 66.691 35.157 66.677A0.496 0.496 0 0 1 35.701 65.848C35.799 65.911 38.104 67.453 39.159 70.696 40.104 73.597 43.671 75.839 43.707 75.861A0.496 0.496 0 0 1 43.445 76.778" fill="#bb84e8" data-fill-palette-color="accent"></path></g><g fill="#bb84e8" data-fill-palette-color="accent"><path d="M38.589 84.1C38.316 84.1 37.956 83.985 37.761 83.65 37.418 83.06 37.847 82.273 38.199 81.733 39.045 80.436 39.346 77.501 36.555 75.139 33.886 72.881 30.475 69.021 29.985 68.461 29.648 68.258 28.454 67.437 27.836 65.705 27.156 63.798 27.12 63.586 28.08 62.35A0.495 0.495 0 1 1 28.863 62.957C28.209 63.8 28.209 63.8 28.769 65.371 29.349 66.997 30.522 67.628 30.534 67.635A0.5 0.5 0 0 1 30.677 67.747C30.714 67.79 34.432 72.045 37.195 74.383 40.117 76.855 40.32 80.293 39.028 82.274 38.589 82.948 38.626 83.174 38.627 83.176 38.906 83.159 39.114 83.334 39.13 83.608 39.147 83.881 38.917 84.083 38.643 84.099z" fill="#bb84e8" data-fill-palette-color="accent"></path></g><g fill="#bb84e8" data-fill-palette-color="accent"><path d="M37.674 43.896A0.497 0.497 0 0 1 37.226 43.187C37.414 42.791 37.902 41.603 37.902 40.865 37.902 40.297 38.04 39.945 38.15 39.662 38.256 39.39 38.326 39.209 38.27 38.84A0.495 0.495 0 1 1 39.249 38.689C39.347 39.322 39.201 39.694 39.073 40.022 38.976 40.27 38.893 40.484 38.893 40.865 38.893 41.978 38.152 43.547 38.121 43.613A0.49 0.49 0 0 1 37.674 43.896" fill="#bb84e8" data-fill-palette-color="accent"></path></g><g fill="#bb84e8" data-fill-palette-color="accent"><path d="M41.801 53.287A0.5 0.5 0 0 1 41.518 53.198L39.526 51.811A0.496 0.496 0 0 1 40.092 50.997L42.084 52.383A0.496 0.496 0 0 1 41.801 53.287" fill="#bb84e8" data-fill-palette-color="accent"></path></g><g fill="#bb84e8" data-fill-palette-color="accent"><path d="M64.607 84.429A0.497 0.497 0 0 1 64.188 83.667C64.305 83.481 64.515 83.017 64.415 82.759 64.399 82.719 64.351 82.595 64.043 82.512 62.366 82.06 61.34 80.046 61.34 79.1 61.34 77.234 60.985 76.08 60.283 75.671 59.182 75.029 59.312 73.522 59.464 71.776 59.543 70.858 59.625 69.908 59.55 68.982 59.364 66.709 59.145 66.647 55.485 65.616L55.293 65.562C51.633 64.528 48.353 65.501 48.321 65.511A0.494 0.494 0 1 1 48.032 64.564C48.177 64.519 51.609 63.494 55.563 64.607L55.754 64.662C59.425 65.695 60.297 65.941 60.539 68.902 60.621 69.911 60.531 70.947 60.452 71.861 60.336 73.213 60.225 74.489 60.784 74.815 62.333 75.717 62.333 78.263 62.333 79.099 62.333 79.654 63.117 81.235 64.302 81.554 64.958 81.731 65.23 82.113 65.341 82.403 65.648 83.196 65.089 84.101 65.025 84.201A0.5 0.5 0 0 1 64.607 84.429" fill="#bb84e8" data-fill-palette-color="accent"></path></g><g fill="#bb84e8" data-fill-palette-color="accent"><path d="M64.025 88.002H38.484A0.497 0.497 0 0 1 38.484 87.01H64.025A0.497 0.497 0 0 1 64.025 88.002" fill="#bb84e8" data-fill-palette-color="accent"></path></g><g fill="#bb84e8" data-fill-palette-color="accent"><path d="M64.025 90.066H38.484A0.497 0.497 0 0 1 38.484 89.074H64.025A0.497 0.497 0 0 1 64.025 90.066" fill="#bb84e8" data-fill-palette-color="accent"></path></g></svg></g><g transform="matrix(1,0,0,1,235.18232645414258,10.476549999999996)"><svg width="202.85000000000002" viewBox="2 -37.1 202.83 37.7" height="37.7" data-palette-color="#35185a"><path d="M16.95 0.6Q12.45 0.6 9.05-1.3 5.65-3.2 3.83-6.68 2-10.15 2-14.85L2-14.85Q2-19.85 4.25-23.88 6.5-27.9 10.48-30.18 14.45-32.45 19.45-32.45L19.45-32.45Q21.3-32.45 23.23-32.18 25.15-31.9 26.48-31.63 27.8-31.35 28.15-31.25L28.15-31.25 28.35-30.95Q28.25-30.65 28.03-29.5 27.8-28.35 27.53-26.5 27.25-24.65 27.1-22.6L27.1-22.6 24.7-22.4Q24.75-22.65 24.8-23.33 24.85-24 24.85-24.85L24.85-24.85Q24.85-29.5 17.5-29.5L17.5-29.5Q14.2-29.5 11.7-27.9 9.2-26.3 7.85-23.38 6.5-20.45 6.5-16.5L6.5-16.5Q6.5-12.15 7.93-8.85 9.35-5.55 11.95-3.73 14.55-1.9 17.95-1.9L17.95-1.9Q21.35-1.9 23.43-3.83 25.5-5.75 26.45-9.8L26.45-9.8 28.85-10Q28.7-9.25 28.2-6.68 27.7-4.1 27.5-1.85L27.5-1.85 27.2-1.4Q27.2-1.35 25.68-0.83 24.15-0.3 21.88 0.15 19.6 0.6 16.95 0.6L16.95 0.6ZM41.8 0.6Q38.95 0.6 36.75-0.8 34.55-2.2 33.32-4.73 32.1-7.25 32.1-10.5L32.1-10.5Q32.1-14 33.62-16.93 35.15-19.85 37.8-21.53 40.45-23.2 43.7-23.2L43.7-23.2Q46.5-23.2 48.72-21.8 50.95-20.4 52.17-17.88 53.4-15.35 53.4-12.1L53.4-12.1Q53.4-8.6 51.87-5.68 50.35-2.75 47.7-1.07 45.05 0.6 41.8 0.6L41.8 0.6ZM43.2-1.85Q46-1.85 47.65-4.13 49.3-6.4 49.3-10.3L49.3-10.3Q49.3-13.25 48.4-15.58 47.5-17.9 45.87-19.2 44.25-20.5 42.2-20.5L42.2-20.5Q39.4-20.5 37.75-18.2 36.1-15.9 36.1-11.95L36.1-11.95Q36.1-9 37-6.7 37.9-4.4 39.5-3.13 41.1-1.85 43.2-1.85L43.2-1.85ZM56.55 0.6L56.75-1.45Q58.15-1.85 58.72-2.45 59.3-3.05 59.42-3.9 59.55-4.75 59.55-6.75L59.55-6.75 59.55-31.3Q59.55-32.85 59.2-33.4 58.85-33.95 57.75-33.95L57.75-33.95Q57.5-33.95 56.6-33.85L56.6-33.85 56.45-33.95 56.65-35.65Q60.85-36.25 64.05-37.1L64.05-37.1 64.35-36.45Q63.8-35.6 63.37-25.75 62.95-15.9 62.95-4.9L62.95-4.9Q62.95-3.4 63.35-2.75 63.75-2.1 64.7-2.1L64.7-2.1 66.45-2.2 66.55-2 66.15 0.15Q62.85 0 61.7 0L61.7 0Q60 0 56.55 0.6L56.55 0.6ZM68.74 0.6L68.94-1.45Q70.34-1.85 70.92-2.45 71.49-3.05 71.62-3.9 71.74-4.75 71.74-6.75L71.74-6.75 71.74-31.3Q71.74-32.85 71.39-33.4 71.04-33.95 69.94-33.95L69.94-33.95Q69.69-33.95 68.79-33.85L68.79-33.85 68.64-33.95 68.84-35.65Q73.04-36.25 76.24-37.1L76.24-37.1 76.54-36.45Q75.99-35.6 75.57-25.75 75.14-15.9 75.14-4.9L75.14-4.9Q75.14-3.4 75.54-2.75 75.94-2.1 76.89-2.1L76.89-2.1 78.64-2.2 78.74-2 78.34 0.15Q75.04 0 73.89 0L73.89 0Q72.19 0 68.74 0.6L68.74 0.6ZM91.89 0.6Q88.79 0.6 86.39-0.78 83.99-2.15 82.69-4.67 81.39-7.2 81.39-10.45L81.39-10.45Q81.39-13.8 82.92-16.75 84.44-19.7 86.99-21.45 89.54-23.2 92.44-23.2L92.44-23.2Q96.09-23.2 97.99-21.35 99.89-19.5 99.89-15.95L99.89-15.95Q99.89-14.5 99.59-13.5L99.59-13.5 98.94-12.9 85.14-12.9Q85.09-8.05 87.07-5.43 89.04-2.8 92.59-2.8L92.59-2.8Q95.39-2.8 98.69-4.35L98.69-4.35 98.99-4.25 99.54-2.8Q97.74-1.5 95.57-0.45 93.39 0.6 91.89 0.6L91.89 0.6ZM85.34-14.75L94.39-15.2Q95.14-15.3 95.39-15.55 95.64-15.8 95.64-16.55L95.64-16.55Q95.64-18.55 94.57-19.6 93.49-20.65 91.49-20.65L91.49-20.65Q89.14-20.65 87.47-19.05 85.79-17.45 85.34-14.75L85.34-14.75ZM114.24 0.6Q109.49 0.6 106.64-2.4 103.79-5.4 103.79-10.45L103.79-10.45Q103.79-14 105.31-16.93 106.84-19.85 109.46-21.53 112.09-23.2 115.34-23.2L115.34-23.2Q116.74-23.2 118.04-23 119.34-22.8 120.16-22.58 120.99-22.35 121.19-22.25L121.19-22.25 121.34-21.9Q121.29-21.65 121.06-20.73 120.84-19.8 120.59-18.28 120.34-16.75 120.29-15L120.29-15 118.24-14.85 118.24-16.4Q118.24-18.25 117.11-19.38 115.99-20.5 114.14-20.5L114.14-20.5Q111.09-20.5 109.44-18.32 107.79-16.15 107.79-12.15L107.79-12.15Q107.79-7.8 109.61-5.28 111.44-2.75 114.59-2.75L114.59-2.75Q115.84-2.75 117.09-3.13 118.34-3.5 119.19-3.88 120.04-4.25 120.24-4.4L120.24-4.4 120.54-4.3 121.09-2.75Q120.74-2.5 119.56-1.7 118.39-0.9 116.86-0.15 115.34 0.6 114.24 0.6L114.24 0.6ZM133.49 0.6Q130.09 0.6 128.69-0.78 127.29-2.15 127.29-5.45L127.29-5.45 127.29-17.75Q127.29-19.1 126.69-19.65 126.09-20.2 124.44-20.25L124.44-20.25 124.24-20.55 124.49-22.05Q125.94-22.75 127.31-23.78 128.69-24.8 129.56-25.58 130.44-26.35 130.69-26.6L130.69-26.6 131.69-26.2Q131.64-25.95 131.54-25 131.44-24.05 131.29-22.45L131.29-22.45 138.64-22.6 138.79-22.45 138.34-19.8 131.09-19.95Q130.74-14.45 130.74-7.45L130.74-7.45Q130.74-4.9 131.61-3.85 132.49-2.8 134.64-2.8L134.64-2.8Q135.39-2.8 136.14-3 136.89-3.2 137.39-3.43 137.89-3.65 138.04-3.7L138.04-3.7 138.54-2.4Q138.24-2.15 137.26-1.45 136.29-0.75 135.16-0.08 134.04 0.6 133.49 0.6L133.49 0.6ZM141.88 0.6L142.08-1.45Q143.58-1.85 144.23-2.63 144.88-3.4 144.88-4.7L144.88-4.7 144.88-17.4Q144.88-20.1 143.03-20.1L143.03-20.1Q142.68-20.1 142.28-20.03 141.88-19.95 141.78-19.9L141.78-19.9 141.98-21.75Q144.08-22.05 146.31-22.55 148.53-23.05 149.18-23.2L149.18-23.2 149.43-22.6Q148.98-21.55 148.63-16.18 148.28-10.8 148.28-4.9L148.28-4.9Q148.28-3.45 148.68-2.78 149.08-2.1 150.03-2.1L150.03-2.1Q150.58-2.1 151.08-2.15 151.58-2.2 151.78-2.2L151.78-2.2 151.88-2 151.48 0.15Q151.03 0.1 149.78 0.05 148.53 0 147.03 0L147.03 0Q145.73 0 144.06 0.25 142.38 0.5 141.88 0.6L141.88 0.6ZM146.28-29.1Q145.13-29.1 144.48-29.85 143.83-30.6 143.83-31.65L143.83-31.65Q143.83-32.85 144.68-33.73 145.53-34.6 146.78-34.6L146.78-34.6Q147.93-34.6 148.58-33.85 149.23-33.1 149.23-32.05L149.23-32.05Q149.23-30.85 148.38-29.98 147.53-29.1 146.28-29.1L146.28-29.1ZM165.28 0.6Q162.43 0.6 160.23-0.8 158.03-2.2 156.81-4.73 155.58-7.25 155.58-10.5L155.58-10.5Q155.58-14 157.11-16.93 158.63-19.85 161.28-21.53 163.93-23.2 167.18-23.2L167.18-23.2Q169.98-23.2 172.21-21.8 174.43-20.4 175.66-17.88 176.88-15.35 176.88-12.1L176.88-12.1Q176.88-8.6 175.36-5.68 173.83-2.75 171.18-1.07 168.53 0.6 165.28 0.6L165.28 0.6ZM166.68-1.85Q169.48-1.85 171.13-4.13 172.78-6.4 172.78-10.3L172.78-10.3Q172.78-13.25 171.88-15.58 170.98-17.9 169.36-19.2 167.73-20.5 165.68-20.5L165.68-20.5Q162.88-20.5 161.23-18.2 159.58-15.9 159.58-11.95L159.58-11.95Q159.58-9 160.48-6.7 161.38-4.4 162.98-3.13 164.58-1.85 166.68-1.85L166.68-1.85ZM195.03-1.45Q196.53-1.85 197.18-2.63 197.83-3.4 197.83-4.7L197.83-4.7 198.03-14.6Q198.03-17.1 196.95-18.45 195.88-19.8 193.88-19.8L193.88-19.8Q192.28-19.8 190.63-18.98 188.98-18.15 187.73-17.2L187.73-17.2Q187.28-6.85 187.28-4.9L187.28-4.9Q187.28-3.35 187.68-2.73 188.08-2.1 189.08-2.1L189.08-2.1Q189.63-2.1 190.13-2.15 190.63-2.2 190.83-2.2L190.83-2.2 190.93-2 190.48 0.15Q190.03 0.1 188.73 0.05 187.43 0 185.93 0L185.93 0Q184.63 0 183.05 0.13 181.48 0.25 180.98 0.3L180.98 0.3 181.23-1.75Q182.68-2 183.28-2.65 183.88-3.3 183.88-4.7L183.88-4.7 183.88-16.9Q183.88-18.6 183.33-19.28 182.78-19.95 181.43-19.95L181.43-19.95 180.88-19.95 180.73-20.15 180.88-21.8Q183.03-22.15 185.15-22.63 187.28-23.1 187.88-23.25L187.88-23.25 188.18-22.85Q188.08-22.55 187.88-21.58 187.68-20.6 187.63-19.55L187.63-19.55 187.73-19.4Q193.43-23.2 195.08-23.2L195.08-23.2Q198.23-23.2 200.08-21.45 201.93-19.7 201.93-16.75L201.93-16.75Q201.93-16.25 201.63-12.15L201.63-12.15Q201.23-6.95 201.23-4.9L201.23-4.9Q201.23-3.45 201.63-2.78 202.03-2.1 202.98-2.1L202.98-2.1Q203.53-2.1 204.03-2.15 204.53-2.2 204.73-2.2L204.73-2.2 204.83-2 204.43 0.15Q203.98 0.1 202.73 0.05 201.48 0 199.98 0L199.98 0Q198.68 0 197 0.25 195.33 0.5 194.83 0.6L194.83 0.6 195.03-1.45Z" opacity="1" transform="matrix(1,0,0,1,0,0)" fill="#35185a" class="undefined-tk-1"></path></svg></g></svg></g></svg></g><g transform="matrix(1,0,0,1,83.66417435274124,69.77199420000001)"><svg viewBox="0 0 270.7039777486601 17.278977303105965" height="17.278977303105965" width="270.7039777486601"><g transform="matrix(1,0,0,1,0,0)"><svg width="270.7039777486601" viewBox="2.5 -36.05 716.66 45.75" height="17.278977303105965" data-palette-color="#35185a"><path d="M7.05-8.55L2.5-8.55 2.5-26.7 7.05-26.7 7.05-8.55ZM7.05-26.7L2.5-26.7Q2.5-29.45 3.75-31.58 5-33.7 7.25-34.88 9.5-36.05 12.4-36.05L12.4-36.05 12.4-32.1Q9.9-32.1 8.47-30.7 7.05-29.3 7.05-26.7L7.05-26.7ZM2.5-8.6L2.5-8.6 7.05-8.6Q7.05-6 8.47-4.58 9.9-3.15 12.4-3.15L12.4-3.15 12.4 0.8Q9.5 0.8 7.25-0.4 5-1.6 3.75-3.7 2.5-5.8 2.5-8.6ZM22.5-26.25L18.35-25.4Q18.05-28.55 16.48-30.33 14.9-32.1 12.35-32.1L12.35-32.1 12.35-36.05Q16.6-36.05 19.28-33.45 21.95-30.85 22.5-26.25L22.5-26.25ZM18.35-9.85L18.35-9.85 22.5-9.05Q21.95-4.4 19.28-1.8 16.6 0.8 12.35 0.8L12.35 0.8 12.35-3.15Q14.9-3.15 16.48-4.93 18.05-6.7 18.35-9.85ZM31.55 0L27 0 27-25.25 31.55-25.25 31.55 0ZM31.55-16.9L29.5-16.9Q29.5-19.45 30.35-21.48 31.2-23.5 32.67-24.65 34.15-25.8 35.95-25.8L35.95-25.8 35.55-21.55Q33.8-21.55 32.67-20.23 31.55-18.9 31.55-16.9L31.55-16.9ZM40.1-24.2L38.55-20.4Q37.95-20.9 37.12-21.23 36.3-21.55 35.55-21.55L35.55-21.55 35.95-25.8Q37.1-25.8 38.2-25.38 39.3-24.95 40.1-24.2L40.1-24.2ZM60.3 0L55.74 0 55.74-17.2 60.3-17.2 60.3 0ZM49.64 0.75L49.64 0.75 49.99-3Q51.8-3 53.07-3.9 54.34-4.8 55.05-6.55 55.74-8.3 55.74-10.7L55.74-10.7 57.99-10.8Q57.99-7.4 56.89-4.8 55.8-2.2 53.92-0.73 52.05 0.75 49.64 0.75ZM49.99-3L49.64 0.75Q47.39 0.75 45.55-0.3 43.7-1.35 42.59-3.18 41.49-5 41.49-7.25L41.49-7.25 45.8-7.4Q45.8-5.5 47.07-4.25 48.34-3 49.99-3L49.99-3ZM45.8-7.4L41.49-7.25Q41.49-9.6 42.67-11.38 43.84-13.15 45.84-14.2 47.84-15.25 50.39-15.25L50.39-15.25 50.64-11.75Q48.55-11.75 47.17-10.53 45.8-9.3 45.8-7.4L45.8-7.4ZM58.09-11.75L50.64-11.75 50.39-15.25 58.09-15.25 58.09-11.75ZM57.99-10.8L55.74-10.7 55.74-17.15 57.99-17.15 57.99-10.8ZM60.3-17.1L60.3-17.1 55.74-17.1Q55.74-19.3 54.42-20.7 53.09-22.1 50.99-22.1L50.99-22.1 50.99-26Q53.7-26 55.77-24.85 57.84-23.7 59.07-21.68 60.3-19.65 60.3-17.1ZM46.3-17.7L46.3-17.7 42.09-18.55Q42.39-20.8 43.62-22.45 44.84-24.1 46.77-25.05 48.7-26 51.05-26L51.05-26 51.05-22.1Q49.2-22.1 47.87-21.03 46.55-19.95 46.3-17.7ZM71.14 0L66.59 0 66.59-27.6 71.14-27.6 71.14 0ZM77.29-21.5L63.69-21.5 63.69-25.25 77.29-25.25 77.29-21.5ZM71.14-27.6L66.59-27.6Q66.59-31.55 68.59-33.77 70.59-36 74.09-36L74.09-36 74.49-32.1Q73.44-32.1 72.69-31.55 71.94-31 71.54-30 71.14-29 71.14-27.6L71.14-27.6ZM78.64-34.45L76.84-31.25Q76.29-31.65 75.72-31.88 75.14-32.1 74.49-32.1L74.49-32.1 74.09-36Q75.29-36 76.47-35.65 77.64-35.3 78.64-34.45L78.64-34.45ZM87.24-7.65L82.69-7.65 82.69-35.3 87.24-35.25 87.24-7.65ZM93.54-21.5L79.79-21.5 79.79-25.25 93.54-25.25 93.54-21.5ZM82.69-7.7L82.69-7.7 87.24-7.7Q87.24-6.25 87.64-5.25 88.04-4.25 88.79-3.73 89.54-3.2 90.59-3.2L90.59-3.2 90.19 0.75Q86.69 0.75 84.69-1.48 82.69-3.7 82.69-7.7ZM92.94-4.05L92.94-4.05 94.74-0.8Q93.74-0.05 92.57 0.35 91.39 0.75 90.19 0.75L90.19 0.75 90.59-3.2Q91.24-3.2 91.82-3.43 92.39-3.65 92.94-4.05ZM114.99-11.25L97.94-11.25 97.94-14.5 114.99-14.5 114.99-11.25ZM105.94 0.8L105.69 0.8 105.69-3.15 105.94-3.15 105.94 0.8ZM101.04-8.95L96.49-8.95 96.49-16.3 101.04-16.3 101.04-8.95ZM114.99-14.5L110.44-14.5 110.44-17.1 114.99-17.1 114.99-14.5ZM114.99-17.1L114.99-17.1 110.44-17.1Q110.44-19.3 109.11-20.7 107.79-22.1 105.69-22.1L105.69-22.1 105.69-26Q108.39-26 110.46-24.85 112.54-23.7 113.76-21.68 114.99-19.65 114.99-17.1ZM110.64-7.5L110.64-7.5 114.89-6.65Q114.59-4.5 113.34-2.8 112.09-1.1 110.19-0.15 108.29 0.8 105.94 0.8L105.94 0.8 105.94-3.15Q107.74-3.15 109.06-4.23 110.39-5.3 110.64-7.5ZM101.04-16.25L96.49-16.25Q96.49-19.1 97.71-21.28 98.94-23.45 101.01-24.73 103.09-26 105.74-26L105.74-26 105.74-22.1Q103.54-22.1 102.29-20.58 101.04-19.05 101.04-16.25L101.04-16.25ZM96.49-8.95L96.49-8.95 101.04-8.95Q101.04-6.2 102.29-4.67 103.54-3.15 105.74-3.15L105.74-3.15 105.74 0.8Q103.09 0.8 101.01-0.48 98.94-1.75 97.71-3.95 96.49-6.15 96.49-8.95ZM137.49-35.25L137.49-25.2 132.94-25.2 132.94-35.25 137.49-35.25ZM137.49 0L132.94 0 132.94-25.25 137.49-25.25 137.49 0ZM123.44-8.05L118.89-8.05 118.89-17.2 123.44-17.2 123.44-8.05ZM123.44-17.2L123.44-17.2 118.89-17.2Q118.89-19.7 119.94-21.7 120.99-23.7 122.81-24.85 124.64-26 126.99-26L126.99-26 128.14-21.95Q126.09-21.95 124.76-20.63 123.44-19.3 123.44-17.2ZM134.94-17.1L134.94-17.1 132.94-17.1Q132.94-19.25 131.59-20.6 130.24-21.95 128.14-21.95L128.14-21.95 126.99-26Q129.24-26 131.06-24.85 132.89-23.7 133.91-21.68 134.94-19.65 134.94-17.1ZM118.89-8.05L123.44-8.05Q123.44-5.95 124.76-4.63 126.09-3.3 128.14-3.3L128.14-3.3 126.99 0.75Q124.64 0.75 122.81-0.4 120.99-1.55 119.94-3.55 118.89-5.55 118.89-8.05L118.89-8.05ZM132.94-8.2L134.94-8.2Q134.94-5.65 133.91-3.63 132.89-1.6 131.06-0.43 129.24 0.75 126.99 0.75L126.99 0.75 128.14-3.3Q130.24-3.3 131.59-4.65 132.94-6 132.94-8.2L132.94-8.2ZM176.58 0L172.38 0 178.78-25.25 183.33-25.25 176.58 0ZM162.33 0L158.13 0 151.38-25.25 155.93-25.25 162.33 0ZM162.73 0L158.83 0 165.33-25.25 169.33-25.25 162.73 0ZM175.88 0L172.03 0 165.38-25.25 169.38-25.25 175.88 0ZM192.38 0L187.83 0 187.83-25.25 192.38-25.25 192.38 0ZM190.08-28.6L190.08-28.6Q188.83-28.6 187.98-29.45 187.13-30.3 187.13-31.55L187.13-31.55Q187.13-32.8 187.98-33.68 188.83-34.55 190.08-34.55L190.08-34.55Q191.33-34.55 192.2-33.68 193.08-32.8 193.08-31.55L193.08-31.55Q193.08-30.3 192.2-29.45 191.33-28.6 190.08-28.6ZM205.08-7.65L200.53-7.65 200.53-35.3 205.08-35.25 205.08-7.65ZM211.38-21.5L197.63-21.5 197.63-25.25 211.38-25.25 211.38-21.5ZM200.53-7.7L200.53-7.7 205.08-7.7Q205.08-6.25 205.48-5.25 205.88-4.25 206.63-3.73 207.38-3.2 208.43-3.2L208.43-3.2 208.03 0.75Q204.53 0.75 202.53-1.48 200.53-3.7 200.53-7.7ZM210.78-4.05L210.78-4.05 212.58-0.8Q211.58-0.05 210.4 0.35 209.23 0.75 208.03 0.75L208.03 0.75 208.43-3.2Q209.08-3.2 209.65-3.43 210.23-3.65 210.78-4.05ZM220.87 0L216.32 0 216.32-25.25 220.87-25.25 220.87 0ZM234.92 0L230.37 0 230.37-17.2 234.92-17.2 234.92 0ZM234.92-17.2L230.37-17.2Q230.37-19.3 229.07-20.63 227.77-21.95 225.72-21.95L225.72-21.95 226.87-26Q229.17-26 231-24.85 232.82-23.7 233.87-21.7 234.92-19.7 234.92-17.2L234.92-17.2ZM220.87-17.1L218.87-17.1Q218.87-19.65 219.92-21.68 220.97-23.7 222.77-24.85 224.57-26 226.87-26L226.87-26 225.72-21.95Q223.57-21.95 222.22-20.6 220.87-19.25 220.87-17.1L220.87-17.1ZM220.87 0L216.32 0 216.32-36 220.87-36 220.87 0ZM257.62-31.3L252.52-31.3 252.52-35.25 257.62-35.25 257.62-31.3ZM257.62-13.55L252.52-13.55 252.52-17.5 257.62-17.5 257.62-13.55ZM267.47-22.9L262.92-22.9 262.92-25.9 267.47-25.9 267.47-22.9ZM267.47-25.9L267.47-25.9 262.92-25.9Q262.92-28.5 261.49-29.9 260.07-31.3 257.57-31.3L257.57-31.3 257.57-35.25Q260.52-35.25 262.74-34.08 264.97-32.9 266.22-30.78 267.47-28.65 267.47-25.9ZM262.92-22.95L267.47-22.95Q267.47-20.15 266.22-18.05 264.97-15.95 262.74-14.75 260.52-13.55 257.57-13.55L257.57-13.55 257.57-17.5Q260.07-17.5 261.49-18.95 262.92-20.4 262.92-22.95L262.92-22.95ZM254.12 0L249.57 0 249.57-35.25 254.12-35.25 254.12 0ZM288.52 0L283.97 0 283.97-17.2 288.52-17.2 288.52 0ZM277.87 0.75L277.87 0.75 278.22-3Q280.02-3 281.29-3.9 282.57-4.8 283.27-6.55 283.97-8.3 283.97-10.7L283.97-10.7 286.22-10.8Q286.22-7.4 285.12-4.8 284.02-2.2 282.14-0.73 280.27 0.75 277.87 0.75ZM278.22-3L277.87 0.75Q275.62 0.75 273.77-0.3 271.92-1.35 270.82-3.18 269.72-5 269.72-7.25L269.72-7.25 274.02-7.4Q274.02-5.5 275.29-4.25 276.57-3 278.22-3L278.22-3ZM274.02-7.4L269.72-7.25Q269.72-9.6 270.89-11.38 272.07-13.15 274.07-14.2 276.07-15.25 278.62-15.25L278.62-15.25 278.87-11.75Q276.77-11.75 275.39-10.53 274.02-9.3 274.02-7.4L274.02-7.4ZM286.32-11.75L278.87-11.75 278.62-15.25 286.32-15.25 286.32-11.75ZM286.22-10.8L283.97-10.7 283.97-17.15 286.22-17.15 286.22-10.8ZM288.52-17.1L288.52-17.1 283.97-17.1Q283.97-19.3 282.64-20.7 281.32-22.1 279.22-22.1L279.22-22.1 279.22-26Q281.92-26 283.99-24.85 286.07-23.7 287.29-21.68 288.52-19.65 288.52-17.1ZM274.52-17.7L274.52-17.7 270.32-18.55Q270.62-20.8 271.84-22.45 273.07-24.1 274.99-25.05 276.92-26 279.27-26L279.27-26 279.27-22.1Q277.42-22.1 276.09-21.03 274.77-19.95 274.52-17.7ZM305.61-6.5L305.61-6.5Q305.61-7.75 304.71-8.58 303.81-9.4 302.39-10.08 300.96-10.75 299.39-11.45 297.81-12.15 296.39-13.08 294.96-14 294.06-15.43 293.16-16.85 293.16-18.9L293.16-18.9Q293.16-18.9 293.59-18.9 294.01-18.9 294.69-18.9 295.36-18.9 296.01-18.9 296.66-18.9 297.11-18.9 297.56-18.9 297.56-18.9L297.56-18.9Q297.56-17.65 298.46-16.82 299.36-16 300.79-15.35 302.21-14.7 303.81-13.98 305.41-13.25 306.81-12.3 308.21-11.35 309.14-9.98 310.06-8.6 310.06-6.5L310.06-6.5Q310.06-6.5 309.61-6.5 309.16-6.5 308.49-6.5 307.81-6.5 307.16-6.5 306.51-6.5 306.06-6.5 305.61-6.5 305.61-6.5ZM301.36 0.75L301.36 0.75 301.36-3.2Q303.21-3.2 304.41-4.13 305.61-5.05 305.61-6.5L305.61-6.5 310.06-6.5Q310.06-4.4 308.94-2.75 307.81-1.1 305.86-0.18 303.91 0.75 301.36 0.75ZM297.56-18.9L293.16-18.9Q293.16-20.95 294.19-22.58 295.21-24.2 297.06-25.13 298.91-26.05 301.16-26.05L301.16-26.05 301.16-22.1Q299.61-22.1 298.59-21.2 297.56-20.3 297.56-18.9L297.56-18.9ZM292.41-6.7L296.61-7.55Q296.86-5.35 298.21-4.28 299.56-3.2 301.36-3.2L301.36-3.2 301.36 0.75Q299.06 0.75 297.11-0.2 295.16-1.15 293.94-2.85 292.71-4.55 292.41-6.7L292.41-6.7ZM310.11-18.6L305.86-17.75Q305.61-20 304.29-21.05 302.96-22.1 301.16-22.1L301.16-22.1 301.16-26.05Q303.51-26.05 305.41-25.1 307.31-24.15 308.56-22.48 309.81-20.8 310.11-18.6L310.11-18.6ZM326.71-6.5L326.71-6.5Q326.71-7.75 325.81-8.58 324.91-9.4 323.49-10.08 322.06-10.75 320.49-11.45 318.91-12.15 317.49-13.08 316.06-14 315.16-15.43 314.26-16.85 314.26-18.9L314.26-18.9Q314.26-18.9 314.69-18.9 315.11-18.9 315.78-18.9 316.46-18.9 317.11-18.9 317.76-18.9 318.21-18.9 318.66-18.9 318.66-18.9L318.66-18.9Q318.66-17.65 319.56-16.82 320.46-16 321.88-15.35 323.31-14.7 324.91-13.98 326.51-13.25 327.91-12.3 329.31-11.35 330.24-9.98 331.16-8.6 331.16-6.5L331.16-6.5Q331.16-6.5 330.71-6.5 330.26-6.5 329.58-6.5 328.91-6.5 328.26-6.5 327.61-6.5 327.16-6.5 326.71-6.5 326.71-6.5ZM322.46 0.75L322.46 0.75 322.46-3.2Q324.31-3.2 325.51-4.13 326.71-5.05 326.71-6.5L326.71-6.5 331.16-6.5Q331.16-4.4 330.03-2.75 328.91-1.1 326.96-0.18 325.01 0.75 322.46 0.75ZM318.66-18.9L314.26-18.9Q314.26-20.95 315.28-22.58 316.31-24.2 318.16-25.13 320.01-26.05 322.26-26.05L322.26-26.05 322.26-22.1Q320.71-22.1 319.69-21.2 318.66-20.3 318.66-18.9L318.66-18.9ZM313.51-6.7L317.71-7.55Q317.96-5.35 319.31-4.28 320.66-3.2 322.46-3.2L322.46-3.2 322.46 0.75Q320.16 0.75 318.21-0.2 316.26-1.15 315.03-2.85 313.81-4.55 313.51-6.7L313.51-6.7ZM331.21-18.6L326.96-17.75Q326.71-20 325.38-21.05 324.06-22.1 322.26-22.1L322.26-22.1 322.26-26.05Q324.61-26.05 326.51-25.1 328.41-24.15 329.66-22.48 330.91-20.8 331.21-18.6L331.21-18.6ZM340.91 0L336.36 0 336.36-25.25 340.91-25.25 340.91 0ZM338.61-28.6L338.61-28.6Q337.36-28.6 336.51-29.45 335.66-30.3 335.66-31.55L335.66-31.55Q335.66-32.8 336.51-33.68 337.36-34.55 338.61-34.55L338.61-34.55Q339.86-34.55 340.73-33.68 341.61-32.8 341.61-31.55L341.61-31.55Q341.61-30.3 340.73-29.45 339.86-28.6 338.61-28.6ZM364.65-8.95L360.1-8.95 360.1-16.3 364.65-16.3 364.65-8.95ZM350.6-8.95L346.05-8.95 346.05-16.3 350.6-16.3 350.6-8.95ZM355.5-22.05L355.2-22.05 355.2-26 355.5-26 355.5-22.05ZM355.5 0.75L355.2 0.75 355.2-3.2 355.5-3.2 355.5 0.75ZM350.6-16.25L346.05-16.25Q346.05-19.05 347.28-21.25 348.5-23.45 350.58-24.73 352.65-26 355.3-26L355.3-26 355.3-22.05Q353.1-22.05 351.85-20.55 350.6-19.05 350.6-16.25L350.6-16.25ZM364.65-16.25L364.65-16.25 360.1-16.25Q360.1-19.05 358.88-20.55 357.65-22.05 355.4-22.05L355.4-22.05 355.4-26Q358.05-26 360.13-24.73 362.2-23.45 363.43-21.25 364.65-19.05 364.65-16.25ZM346.05-9L346.05-9 350.6-9Q350.6-6.25 351.85-4.73 353.1-3.2 355.3-3.2L355.3-3.2 355.3 0.75Q352.65 0.75 350.58-0.53 348.5-1.8 347.28-4 346.05-6.2 346.05-9ZM360.1-9L364.65-9Q364.65-6.2 363.43-4 362.2-1.8 360.13-0.53 358.05 0.75 355.4 0.75L355.4 0.75 355.4-3.2Q357.65-3.2 358.88-4.73 360.1-6.25 360.1-9L360.1-9ZM373.85 0L369.3 0 369.3-25.25 373.85-25.25 373.85 0ZM387.9 0L383.35 0 383.35-17.2 387.9-17.2 387.9 0ZM387.9-17.2L383.35-17.2Q383.35-19.3 382.05-20.63 380.75-21.95 378.7-21.95L378.7-21.95 379.85-26Q382.15-26 383.98-24.85 385.8-23.7 386.85-21.7 387.9-19.7 387.9-17.2L387.9-17.2ZM373.85-17.1L371.85-17.1Q371.85-19.65 372.9-21.68 373.95-23.7 375.75-24.85 377.55-26 379.85-26L379.85-26 378.7-21.95Q376.55-21.95 375.2-20.6 373.85-19.25 373.85-17.1L373.85-17.1ZM395.25 5.25L392.65 3.85Q393.35 2.8 393.85 2.02 394.35 1.25 394.65 0.53 394.95-0.2 395.1-1.05 395.25-1.9 395.25-3.05L395.25-3.05 398.8-3.55Q398.8-1.9 398.35-0.45 397.9 1 397.07 2.38 396.25 3.75 395.25 5.25L395.25 5.25ZM395.75-0.6L395.75-0.6Q394.5-0.6 393.65-1.43 392.8-2.25 392.8-3.55L392.8-3.55Q392.8-4.8 393.65-5.68 394.5-6.55 395.75-6.55L395.75-6.55Q397.05-6.55 397.92-5.68 398.8-4.8 398.8-3.55L398.8-3.55Q398.8-2.25 397.92-1.43 397.05-0.6 395.75-0.6ZM431.69-9.35L427.14-9.35 427.14-25.9 431.69-25.9 431.69-9.35ZM421.84 0L416.89 0 416.89-3.95 421.84-3.95 421.84 0ZM421.84-31.3L416.89-31.3 416.89-35.25 421.84-35.25 421.84-31.3ZM421.84-31.3L416.89-31.3 416.89-35.25 421.84-35.25 421.84-31.3ZM431.69-25.9L431.69-25.9 427.14-25.9Q427.14-28.5 425.74-29.9 424.34-31.3 421.84-31.3L421.84-31.3 421.84-35.25Q424.74-35.25 426.97-34.08 429.19-32.9 430.44-30.78 431.69-28.65 431.69-25.9ZM427.14-9.4L431.69-9.4Q431.69-6.6 430.44-4.5 429.19-2.4 426.97-1.2 424.74 0 421.84 0L421.84 0 421.84-3.95Q424.34-3.95 425.74-5.38 427.14-6.8 427.14-9.4L427.14-9.4ZM418.24 0L413.69 0 413.69-35.25 418.24-35.25 418.24 0ZM454.59-11.25L437.54-11.25 437.54-14.5 454.59-14.5 454.59-11.25ZM445.54 0.8L445.29 0.8 445.29-3.15 445.54-3.15 445.54 0.8ZM440.64-8.95L436.09-8.95 436.09-16.3 440.64-16.3 440.64-8.95ZM454.59-14.5L450.04-14.5 450.04-17.1 454.59-17.1 454.59-14.5ZM454.59-17.1L454.59-17.1 450.04-17.1Q450.04-19.3 448.72-20.7 447.39-22.1 445.29-22.1L445.29-22.1 445.29-26Q447.99-26 450.07-24.85 452.14-23.7 453.37-21.68 454.59-19.65 454.59-17.1ZM450.24-7.5L450.24-7.5 454.49-6.65Q454.19-4.5 452.94-2.8 451.69-1.1 449.79-0.15 447.89 0.8 445.54 0.8L445.54 0.8 445.54-3.15Q447.34-3.15 448.67-4.23 449.99-5.3 450.24-7.5ZM440.64-16.25L436.09-16.25Q436.09-19.1 437.32-21.28 438.54-23.45 440.62-24.73 442.69-26 445.34-26L445.34-26 445.34-22.1Q443.14-22.1 441.89-20.58 440.64-19.05 440.64-16.25L440.64-16.25ZM436.09-8.95L436.09-8.95 440.64-8.95Q440.64-6.2 441.89-4.67 443.14-3.15 445.34-3.15L445.34-3.15 445.34 0.8Q442.69 0.8 440.62-0.48 438.54-1.75 437.32-3.95 436.09-6.15 436.09-8.95ZM471.19-6.5L471.19-6.5Q471.19-7.75 470.29-8.58 469.39-9.4 467.96-10.08 466.54-10.75 464.96-11.45 463.39-12.15 461.96-13.08 460.54-14 459.64-15.43 458.74-16.85 458.74-18.9L458.74-18.9Q458.74-18.9 459.16-18.9 459.59-18.9 460.26-18.9 460.94-18.9 461.59-18.9 462.24-18.9 462.69-18.9 463.14-18.9 463.14-18.9L463.14-18.9Q463.14-17.65 464.04-16.82 464.94-16 466.36-15.35 467.79-14.7 469.39-13.98 470.99-13.25 472.39-12.3 473.79-11.35 474.71-9.98 475.64-8.6 475.64-6.5L475.64-6.5Q475.64-6.5 475.19-6.5 474.74-6.5 474.06-6.5 473.39-6.5 472.74-6.5 472.09-6.5 471.64-6.5 471.19-6.5 471.19-6.5ZM466.94 0.75L466.94 0.75 466.94-3.2Q468.79-3.2 469.99-4.13 471.19-5.05 471.19-6.5L471.19-6.5 475.64-6.5Q475.64-4.4 474.51-2.75 473.39-1.1 471.44-0.18 469.49 0.75 466.94 0.75ZM463.14-18.9L458.74-18.9Q458.74-20.95 459.76-22.58 460.79-24.2 462.64-25.13 464.49-26.05 466.74-26.05L466.74-26.05 466.74-22.1Q465.19-22.1 464.16-21.2 463.14-20.3 463.14-18.9L463.14-18.9ZM457.99-6.7L462.19-7.55Q462.44-5.35 463.79-4.28 465.14-3.2 466.94-3.2L466.94-3.2 466.94 0.75Q464.64 0.75 462.69-0.2 460.74-1.15 459.51-2.85 458.29-4.55 457.99-6.7L457.99-6.7ZM475.69-18.6L471.44-17.75Q471.19-20 469.86-21.05 468.54-22.1 466.74-22.1L466.74-22.1 466.74-26.05Q469.09-26.05 470.99-25.1 472.89-24.15 474.14-22.48 475.39-20.8 475.69-18.6L475.69-18.6ZM485.39 0L480.84 0 480.84-25.25 485.39-25.25 485.39 0ZM483.09-28.6L483.09-28.6Q481.84-28.6 480.99-29.45 480.14-30.3 480.14-31.55L480.14-31.55Q480.14-32.8 480.99-33.68 481.84-34.55 483.09-34.55L483.09-34.55Q484.34-34.55 485.21-33.68 486.09-32.8 486.09-31.55L486.09-31.55Q486.09-30.3 485.21-29.45 484.34-28.6 483.09-28.6ZM509.63 0.9L505.08 0.9 505.08-25.25 509.63-25.25 509.63 0.9ZM495.58-8.7L491.03-8.7 491.03-17.2 495.58-17.2 495.58-8.7ZM495.58-17.2L495.58-17.2 491.03-17.2Q491.03-19.7 492.08-21.7 493.13-23.7 494.96-24.85 496.78-26 499.13-26L499.13-26 500.28-21.95Q498.23-21.95 496.91-20.63 495.58-19.3 495.58-17.2ZM507.08-17.1L507.08-17.1 505.08-17.1Q505.08-19.25 503.73-20.6 502.38-21.95 500.28-21.95L500.28-21.95 499.13-26Q501.38-26 503.21-24.85 505.03-23.7 506.06-21.68 507.08-19.65 507.08-17.1ZM491.03-8.7L495.58-8.7Q495.58-6.6 496.91-5.28 498.23-3.95 500.28-3.95L500.28-3.95 499.13 0.1Q496.78 0.1 494.96-1.05 493.13-2.2 492.08-4.2 491.03-6.2 491.03-8.7L491.03-8.7ZM505.08-8.85L507.08-8.85Q507.08-6.3 506.06-4.28 505.03-2.25 503.21-1.07 501.38 0.1 499.13 0.1L499.13 0.1 500.28-3.95Q502.38-3.95 503.73-5.3 505.08-6.65 505.08-8.85L505.08-8.85ZM505.08 0.75L509.63 0.75Q509.63 3.3 508.43 5.33 507.23 7.35 505.13 8.53 503.03 9.7 500.38 9.7L500.38 9.7 500.38 5.75Q502.43 5.75 503.76 4.33 505.08 2.9 505.08 0.75L505.08 0.75ZM491.43 2.25L495.63 1.4Q495.88 3.6 497.23 4.67 498.58 5.75 500.38 5.75L500.38 5.75 500.38 9.7Q498.08 9.7 496.13 8.75 494.18 7.8 492.96 6.1 491.73 4.4 491.43 2.25L491.43 2.25ZM520.08 0L515.53 0 515.53-25.25 520.08-25.25 520.08 0ZM534.13 0L529.58 0 529.58-17.2 534.13-17.2 534.13 0ZM534.13-17.2L529.58-17.2Q529.58-19.3 528.28-20.63 526.98-21.95 524.93-21.95L524.93-21.95 526.08-26Q528.38-26 530.21-24.85 532.03-23.7 533.08-21.7 534.13-19.7 534.13-17.2L534.13-17.2ZM520.08-17.1L518.08-17.1Q518.08-19.65 519.13-21.68 520.18-23.7 521.98-24.85 523.78-26 526.08-26L526.08-26 524.93-21.95Q522.78-21.95 521.43-20.6 520.08-19.25 520.08-17.1L520.08-17.1ZM556.53-11.25L539.48-11.25 539.48-14.5 556.53-14.5 556.53-11.25ZM547.48 0.8L547.23 0.8 547.23-3.15 547.48-3.15 547.48 0.8ZM542.58-8.95L538.03-8.95 538.03-16.3 542.58-16.3 542.58-8.95ZM556.53-14.5L551.98-14.5 551.98-17.1 556.53-17.1 556.53-14.5ZM556.53-17.1L556.53-17.1 551.98-17.1Q551.98-19.3 550.65-20.7 549.33-22.1 547.23-22.1L547.23-22.1 547.23-26Q549.93-26 552-24.85 554.08-23.7 555.3-21.68 556.53-19.65 556.53-17.1ZM552.18-7.5L552.18-7.5 556.43-6.65Q556.13-4.5 554.88-2.8 553.63-1.1 551.73-0.15 549.83 0.8 547.48 0.8L547.48 0.8 547.48-3.15Q549.28-3.15 550.6-4.23 551.93-5.3 552.18-7.5ZM542.58-16.25L538.03-16.25Q538.03-19.1 539.25-21.28 540.48-23.45 542.55-24.73 544.63-26 547.28-26L547.28-26 547.28-22.1Q545.08-22.1 543.83-20.58 542.58-19.05 542.58-16.25L542.58-16.25ZM538.03-8.95L538.03-8.95 542.58-8.95Q542.58-6.2 543.83-4.67 545.08-3.15 547.28-3.15L547.28-3.15 547.28 0.8Q544.63 0.8 542.55-0.48 540.48-1.75 539.25-3.95 538.03-6.15 538.03-8.95ZM579.03-35.25L579.03-25.2 574.48-25.2 574.48-35.25 579.03-35.25ZM579.03 0L574.48 0 574.48-25.25 579.03-25.25 579.03 0ZM564.98-8.05L560.43-8.05 560.43-17.2 564.98-17.2 564.98-8.05ZM564.98-17.2L564.98-17.2 560.43-17.2Q560.43-19.7 561.48-21.7 562.53-23.7 564.35-24.85 566.18-26 568.53-26L568.53-26 569.68-21.95Q567.63-21.95 566.3-20.63 564.98-19.3 564.98-17.2ZM576.48-17.1L576.48-17.1 574.48-17.1Q574.48-19.25 573.13-20.6 571.78-21.95 569.68-21.95L569.68-21.95 568.53-26Q570.78-26 572.6-24.85 574.43-23.7 575.45-21.68 576.48-19.65 576.48-17.1ZM560.43-8.05L564.98-8.05Q564.98-5.95 566.3-4.63 567.63-3.3 569.68-3.3L569.68-3.3 568.53 0.75Q566.18 0.75 564.35-0.4 562.53-1.55 561.48-3.55 560.43-5.55 560.43-8.05L560.43-8.05ZM574.48-8.2L576.48-8.2Q576.48-5.65 575.45-3.63 574.43-1.6 572.6-0.43 570.78 0.75 568.53 0.75L568.53 0.75 569.68-3.3Q571.78-3.3 573.13-4.65 574.48-6 574.48-8.2L574.48-8.2ZM600.12 0L595.57 0 595.57-27.6 600.12-27.6 600.12 0ZM606.27-21.5L592.67-21.5 592.67-25.25 606.27-25.25 606.27-21.5ZM600.12-27.6L595.57-27.6Q595.57-31.55 597.57-33.77 599.57-36 603.07-36L603.07-36 603.47-32.1Q602.42-32.1 601.67-31.55 600.92-31 600.52-30 600.12-29 600.12-27.6L600.12-27.6ZM607.62-34.45L605.82-31.25Q605.27-31.65 604.7-31.88 604.12-32.1 603.47-32.1L603.47-32.1 603.07-36Q604.27-36 605.45-35.65 606.62-35.3 607.62-34.45L607.62-34.45ZM626.62-8.95L622.07-8.95 622.07-16.3 626.62-16.3 626.62-8.95ZM612.57-8.95L608.02-8.95 608.02-16.3 612.57-16.3 612.57-8.95ZM617.47-22.05L617.17-22.05 617.17-26 617.47-26 617.47-22.05ZM617.47 0.75L617.17 0.75 617.17-3.2 617.47-3.2 617.47 0.75ZM612.57-16.25L608.02-16.25Q608.02-19.05 609.24-21.25 610.47-23.45 612.54-24.73 614.62-26 617.27-26L617.27-26 617.27-22.05Q615.07-22.05 613.82-20.55 612.57-19.05 612.57-16.25L612.57-16.25ZM626.62-16.25L626.62-16.25 622.07-16.25Q622.07-19.05 620.84-20.55 619.62-22.05 617.37-22.05L617.37-22.05 617.37-26Q620.02-26 622.09-24.73 624.17-23.45 625.39-21.25 626.62-19.05 626.62-16.25ZM608.02-9L608.02-9 612.57-9Q612.57-6.25 613.82-4.73 615.07-3.2 617.27-3.2L617.27-3.2 617.27 0.75Q614.62 0.75 612.54-0.53 610.47-1.8 609.24-4 608.02-6.2 608.02-9ZM622.07-9L626.62-9Q626.62-6.2 625.39-4 624.17-1.8 622.09-0.53 620.02 0.75 617.37 0.75L617.37 0.75 617.37-3.2Q619.62-3.2 620.84-4.73 622.07-6.25 622.07-9L622.07-9ZM635.82 0L631.27 0 631.27-25.25 635.82-25.25 635.82 0ZM635.82-16.9L633.77-16.9Q633.77-19.45 634.62-21.48 635.47-23.5 636.94-24.65 638.42-25.8 640.22-25.8L640.22-25.8 639.82-21.55Q638.07-21.55 636.94-20.23 635.82-18.9 635.82-16.9L635.82-16.9ZM644.37-24.2L642.82-20.4Q642.22-20.9 641.39-21.23 640.57-21.55 639.82-21.55L639.82-21.55 640.22-25.8Q641.37-25.8 642.47-25.38 643.57-24.95 644.37-24.2L644.37-24.2ZM668.21-12.15L663.91-12.15 671.76-35.25 676.06-35.25 668.21-12.15ZM668.21 0L663.91 0 663.91-12.15 668.21-12.15 668.21 0ZM668.21-12.15L663.91-12.15 656.01-35.25 660.71-35.25 668.21-12.15ZM696.66-8.95L692.11-8.95 692.11-16.3 696.66-16.3 696.66-8.95ZM682.61-8.95L678.06-8.95 678.06-16.3 682.61-16.3 682.61-8.95ZM687.51-22.05L687.21-22.05 687.21-26 687.51-26 687.51-22.05ZM687.51 0.75L687.21 0.75 687.21-3.2 687.51-3.2 687.51 0.75ZM682.61-16.25L678.06-16.25Q678.06-19.05 679.28-21.25 680.51-23.45 682.58-24.73 684.66-26 687.31-26L687.31-26 687.31-22.05Q685.11-22.05 683.86-20.55 682.61-19.05 682.61-16.25L682.61-16.25ZM696.66-16.25L696.66-16.25 692.11-16.25Q692.11-19.05 690.88-20.55 689.66-22.05 687.41-22.05L687.41-22.05 687.41-26Q690.06-26 692.13-24.73 694.21-23.45 695.43-21.25 696.66-19.05 696.66-16.25ZM678.06-9L678.06-9 682.61-9Q682.61-6.25 683.86-4.73 685.11-3.2 687.31-3.2L687.31-3.2 687.31 0.75Q684.66 0.75 682.58-0.53 680.51-1.8 679.28-4 678.06-6.2 678.06-9ZM692.11-9L696.66-9Q696.66-6.2 695.43-4 694.21-1.8 692.13-0.53 690.06 0.75 687.41 0.75L687.41 0.75 687.41-3.2Q689.66-3.2 690.88-4.73 692.11-6.25 692.11-9L692.11-9ZM714.61-25.25L719.16-25.25 719.16 0 714.61 0 714.61-25.25ZM700.56-25.25L705.11-25.25 705.11-8.05 700.56-8.05 700.56-25.25ZM700.56-8.05L705.11-8.05Q705.11-5.95 706.43-4.63 707.76-3.3 709.81-3.3L709.81-3.3 708.66 0.75Q706.31 0.75 704.48-0.4 702.66-1.55 701.61-3.55 700.56-5.55 700.56-8.05L700.56-8.05ZM714.61-8.2L716.61-8.2Q716.61-5.65 715.58-3.63 714.56-1.6 712.73-0.43 710.91 0.75 708.66 0.75L708.66 0.75 709.81-3.3Q711.91-3.3 713.26-4.65 714.61-6 714.61-8.2L714.61-8.2Z" opacity="1" transform="matrix(1,0,0,1,0,0)" fill="#35185a" class="slogan-text-1" data-fill-palette-color="secondary" id="text-1"></path></svg></g></svg></g></svg></g></svg></g><g></g></svg></g><defs></defs></svg><rect width="395.52" height="78.6024185192482" fill="none" stroke="none" visibility="hidden"></rect></g></svg></g></svg>